<?xml version="1.0" encoding="UTF-8" standalone="no"?>
<svg
   xmlns:dc="http://purl.org/dc/elements/1.1/"
   xmlns:cc="http://creativecommons.org/ns#"
   xmlns:rdf="http://www.w3.org/1999/02/22-rdf-syntax-ns#"
   xmlns:svg="http://www.w3.org/2000/svg"
   xmlns="http://www.w3.org/2000/svg"
   xmlns:sodipodi="http://sodipodi.sourceforge.net/DTD/sodipodi-0.dtd"
   xmlns:inkscape="http://www.inkscape.org/namespaces/inkscape"
   version="1.1"
   viewBox="0 0 200 200"
   xlink="http://www.w3.org/1999/xlink"
   style="overflow:hidden!important;"
   id="svg2"
   inkscape:version="0.91 r13725"
   sodipodi:docname="avatar.svg">
  <metadata
     id="metadata203">
    <rdf:RDF>
      <cc:Work
         rdf:about="">
        <dc:format>image/svg+xml</dc:format>
        <dc:type
           rdf:resource="http://purl.org/dc/dcmitype/StillImage" />
      </cc:Work>
    </rdf:RDF>
  </metadata>
  <sodipodi:namedview
     pagecolor="#ffffff"
     bordercolor="#666666"
     borderopacity="1"
     objecttolerance="10"
     gridtolerance="10"
     guidetolerance="10"
     inkscape:pageopacity="0"
     inkscape:pageshadow="2"
     inkscape:window-width="1920"
     inkscape:window-height="1034"
     id="namedview201"
     showgrid="false"
     inkscape:zoom="2.36"
     inkscape:cx="105.98904"
     inkscape:cy="66.498337"
     inkscape:window-x="0"
     inkscape:window-y="0"
     inkscape:window-maximized="1"
     inkscape:current-layer="svg2" />
  <defs
     id="defs4">
    <style
       id="style6">

#svga-group-mouth-single-2 {
	display: none;
}

svg:hover #svga-group-mouth-single-2 {
	display: inline;
}

svg:hover #svga-group-mouth-single {
	display: none;
}

</style>
  </defs>
  <g
     id="svga-group-wrapper"
     transform="matrix(0.78583309,0,0,0.78583309,23.686363,17.810745)">
    <g
       id="svga-group-backs-single" />
    <g
       id="svga-group-subwrapper">
      <g
         id="svga-group-hair-back">
        <path
           id="SvgjsPath6335"
           d="m 100.5,100.5 -1,0 0,-1 1,0 0,1 z"
           stroke-width="none"
           inkscape:connector-curvature="0"
           style="opacity:1;fill:#3b3128" />
      </g>
      <g
         id="svga-group-humanbody-single">
        <path
           id="SvgjsPath2893"
           d="m 195.417,199.778 c -2.196,-4.746 -8.195,-11.779 -14.86,-13.722 -8.239,-2.403 -26.837,-5.308 -33.733,-6.923 -5.528,-1.296 -16.662,-11.294 -20.564,-14.65 -0.7,-0.6 -1.273,-1.839 -1.287,-2.76 -0.139,-10.864 4.195,-39.724 4.195,-39.724 l -29.168,0 -29.167,0 c 0,0 4.334,28.859 4.193,39.724 -0.011,0.921 -0.587,2.16 -1.285,2.76 -3.902,3.356 -15.036,13.354 -20.564,14.65 -6.897,1.615 -25.495,4.619 -33.733,7.022 -6.667,1.942 -12.664,8.876 -14.86,13.622 -3.708,8.008 -4.584,22.5 -4.584,35 l 100,0 100,0 c 0,-12.499 -0.877,-26.991 -4.583,-34.999 z"
           stroke-width="none"
           inkscape:connector-curvature="0"
           style="opacity:1;fill:#f0c7b1;stroke:none" />
        <path
           id="SvgjsPath2894"
           d="m 159.156,184.058 c 24.342,3.542 34.586,8.708 37.794,50.721 l 3.05,0 c 0,-12.5 -0.877,-26.992 -4.583,-35 -2.196,-4.746 -8.195,-11.779 -14.86,-13.722 -8.239,-2.403 -26.837,-5.308 -33.733,-6.923 -5.528,-1.296 -18.242,-12.069 -21.643,-16.35 3.36,4.704 12.791,15.605 21.054,18.46 3.953,1.366 7.245,1.988 12.921,2.814 z m -105.39,-2.814 c 8.263,-2.854 17.693,-13.756 21.054,-18.46 -3.4,4.28 -16.114,15.054 -21.643,16.35 -6.896,1.615 -25.494,4.619 -33.733,7.022 -6.665,1.942 -12.664,8.876 -14.86,13.622 -3.706,8.008 -4.583,22.5 -4.583,35 l 3.05,0 c 3.188,-41.744 13.475,-47.183 37.794,-50.721 5.675,-0.825 8.968,-1.447 12.921,-2.813 z"
           stroke-width="none"
           inkscape:connector-curvature="0"
           style="opacity:1;fill:#ffe4d6;stroke:none" />
        <path
           id="SvgjsPath2895"
           d="m 95.646,197.62 c 0,0 -5.074,-1.609 -7.083,-2.379 -10.449,-4.009 -44.395,-6.607 -44.395,-6.607 0,0 35.754,1.419 43.644,2.779 -0.458,-4.767 -3.017,-20.004 -3.017,-20.004 0,0 5.149,16.815 6.409,21.057 0.674,2.268 4.442,5.154 4.442,5.154 z m 10.799,-1.342 c -0.089,0.073 -0.191,0.168 -0.302,0.268 0.113,-0.085 0.215,-0.174 0.302,-0.268 z m -10.799,1.342 c 0,0 2.893,2.992 4.347,3.03 1.91,0.051 4.828,-2.899 6.151,-4.104 -1.265,0.957 -4.159,1.391 -5.31,1.436 -1.33,0.051 -5.188,-0.362 -5.188,-0.362 z m 21.018,-7.519 c -1.545,0.248 -4.386,0.789 -4.386,0.789 L 114.565,176 c -0.646,3.071 -4.474,16.211 -8.12,20.278 1.91,-1.616 6.158,-2.391 8.324,-2.704 10.236,-1.484 10.232,-1.483 41.062,-4.94 0,0 -29.071,-0.155 -39.167,1.467 z"
           stroke-width="none"
           inkscape:connector-curvature="0"
           style="opacity:1;fill:#e1ac8f;stroke:none" />
        <path
           id="SvgjsPath2896"
           d="m 195.417,199.778 c -2.196,-4.746 -8.195,-11.779 -14.86,-13.722 -8.239,-2.403 -26.837,-5.308 -33.733,-6.923 -5.528,-1.296 -16.662,-11.294 -20.564,-14.65 -0.7,-0.6 -1.273,-1.839 -1.287,-2.76 -0.139,-10.864 4.195,-39.724 4.195,-39.724 l -29.168,0 -29.167,0 c 0,0 4.334,28.859 4.193,39.724 -0.011,0.921 -0.587,2.16 -1.285,2.76 -3.902,3.356 -15.036,13.354 -20.564,14.65 -6.897,1.615 -25.495,4.619 -33.733,7.022 -6.667,1.942 -12.664,8.876 -14.86,13.622 -3.708,8.008 -4.584,22.5 -4.584,35 l 100,0 100,0 c 0,-12.499 -0.877,-26.991 -4.583,-34.999 z"
           inkscape:connector-curvature="0"
           style="opacity:1;fill:none;stroke:#c27b55;stroke-width:1.5" />
      </g>
      <g
         id="svga-group-chinshadow-single">
        <path
           id="SvgjsPath6216"
           d="m 75.517,163.052 c 6.979,4.54 16.307,8.814 24.485,8.814 7.828,0 17.345,-4.309 24.458,-8.869 -0.145,-0.428 -0.233,-0.862 -0.239,-1.264 -0.126,-9.877 3.345,-34.021 4.076,-38.983 l -56.594,0 c 0.73,4.963 4.202,29.106 4.074,38.982 -0.005,0.414 -0.101,0.871 -0.26,1.32 z"
           style="opacity:1;fill:url(#SvgjsLinearGradient6217)"
           inkscape:connector-curvature="0" />
      </g>
      <g
         id="svga-group-clothes-single">
        <path
           id="SvgjsPath6341"
           d="m -3.682,236.192 c -2.914,-24.293 8.022,-47.09 34.496,-54.611 7.77,-2.208 5.691,-3.341 6.867,-3.41 -0.039,-0.211 -0.045,-0.2 -0.045,-0.63 l -0.036,0 c 0.087,-8.03 9.028,-6.453 11.587,-6.984 10.121,-2.158 13.558,-12.786 25.115,-9.985 0.284,2.437 0.075,5.248 -1.371,15.663 10.899,23.466 22.722,21.437 26.925,34.571 3.815,-11.746 17.339,-13.617 27.306,-34.576 -0.655,-5.884 -2.083,-11.033 -1.482,-15.935 l 0.057,-0.042 c 7.744,-2.583 11.127,0.874 14.21,3.854 9.397,9.083 14.382,3.325 19.085,7.457 1.871,1.659 2.547,3.997 2.547,6.518 21.412,3.11 45.974,9.898 41.089,57.481 l 0.096,0.104 c -21.67,0 -145.218,5.428 -206.446,0.525 z"
           stroke-width="none"
           inkscape:connector-curvature="0"
           style="opacity:1;fill:#545454;stroke:none" />
        <path
           id="SvgjsPath6342"
           d="m 100.268,209.685 c 4.229,-10.638 16.946,-13.132 26.543,-32.755 0.098,-0.108 0.347,-0.591 0.656,-1.237 -0.164,-1.826 -0.372,-3.747 -1.213,-5.757 -0.522,-3.35 -0.939,-6.489 -0.587,-9.535 1.974,0.578 3.842,1.262 5.12,2.66 1.882,2.052 0.455,5.609 -1.346,9.042 -3.378,14.741 -11.847,25.39 -29.173,37.582 z m 69.014,-10.826 c 2.938,10.376 4.895,26.928 2.544,37.445 1.962,-0.045 2.686,-0.097 4.506,-0.138 0.814,-11.046 -1.178,-28.686 -7.05,-37.307 z m -31.678,1.876 c -12.805,7.48 -25.687,10.358 -37.321,20.291 -11.64,-9.904 -24.647,-11.637 -37.453,-19.108 -5.87,-2.36 -14.874,-10.699 -20.377,-16.572 17.313,26.284 29.706,18.823 57.434,36.538 27.736,-17.715 40.205,-11.692 57.516,-37.974 -5.503,5.872 -13.927,14.48 -19.799,16.825 z M 99.81,210.936 C 95.572,200.292 83.351,196.553 73.754,176.93 c -0.093,-0.108 -0.343,-0.591 -0.652,-1.237 0.156,-1.826 -0.262,-3.841 0.586,-5.857 0.521,-3.358 0.748,-6.092 0.393,-9.132 -1.969,0.574 -3.025,0.959 -4.303,2.357 -1.88,2.052 -0.453,5.609 1.347,9.042 3.377,14.741 11.354,26.637 28.685,38.833 z M 27.163,197.688 c -4.305,9.396 -4.34,27.432 -3.528,38.479 1.821,0.041 2.548,0.093 4.506,0.138 -2.35,-10.518 -1.762,-28.045 -0.978,-38.617 z m 72.725,15.276 c 16.389,-4.909 33.813,-13.894 48.305,-35.847 -13.084,17.643 -32.525,28.063 -47.926,34.455 -15.89,-5.762 -34.915,-17.221 -46.006,-32.635 12.996,21.289 29.247,29.118 45.627,34.027 z"
           stroke-width="none"
           inkscape:connector-curvature="0"
           style="opacity:1;fill:#453e3e;stroke:none" />
        <path
           id="SvgjsPath6343"
           d="m 202.762,235.667 c -0.115,0 -0.256,0.001 -0.374,0.001 -0.427,-48.615 -27.497,-50.574 -42.48,-53.725 -2.345,0 -3.563,-6.505 -5.288,-8.24 -1.467,-1.475 -12.769,-1.475 -16.348,-11.169 0.583,0.513 1.131,1.052 1.674,1.573 9.397,9.083 14.382,3.325 19.085,7.457 1.871,1.659 2.547,3.997 2.547,6.518 21.412,3.11 45.974,9.898 41.089,57.481 l 0.095,0.104 z m -206.73,1.173 c 0.114,0 0.255,0.001 0.376,0.001 4.759,-38.632 16.029,-50.811 43.543,-55.364 3.451,-1.313 1.634,-3.81 3.362,-5.544 1.467,-1.468 9.627,-1.5 20.924,-13.389 -0.582,0.513 -3.075,1.042 -3.615,1.563 -9.398,9.083 -16.485,6.51 -19.088,7.457 -3.209,1.188 -3.707,4.028 -3.707,6.546 -21.414,3.111 -44.161,14.974 -41.702,58.626 l -0.093,0.104 z"
           stroke-width="none"
           inkscape:connector-curvature="0"
           style="opacity:1;fill:#636363;stroke:none" />
        <path
           id="SvgjsPath6344"
           d="m 161.69,177.978 c 0,-9.858 -9.265,-7.895 -13.529,-8.812 -9.409,-2.02 -9.113,-12.916 -22.582,-8.985 -0.574,4.657 0.516,8.738 1.473,15.997 -9.877,20.755 -23.576,23.093 -27.196,34.245 -3.957,-12.38 -16.045,-11.134 -26.81,-34.171 1.498,-10.838 1.648,-13.354 1.36,-15.774 -10.271,-2.349 -12.588,4.32 -21.876,8.776 -5.637,2.642 -7.229,0.263 -12.067,2.633 -2.007,0.968 -3.018,3.609 -2.946,5.767 -0.013,0.01 0,0.01 0,0.01 0,0.139 0,0.267 0.023,0.396 -1.175,0.082 0.546,0.074 -7.323,1.346 -25.363,4.1 -36.61,25.534 -34.005,56.906 11.89,0 1.011,4.382 183.147,-0.077 8.456,-0.214 22.799,-0.447 23.402,-0.447 5.56,-46.523 -17.925,-54.22 -41.071,-57.81 z M -3.624,236.057 c 2.579,-36.004 8.018,-50.026 41.046,-57.329 17.978,29.839 39.98,25.499 62.232,42.189 -20.166,-16.771 -41.302,-14.549 -61.622,-42.583 -0.228,-2.354 1,-4.943 3.535,-5.959 1.796,-0.702 3.72,-0.498 5.6,-0.488 7.087,0.054 12.546,-5.502 17.793,-9.578 2.499,-1.67 6.22,-1.752 9.2,-1.292 0.231,3.874 -1.262,9.721 -1.762,13.845 -1.042,-2.295 -2.029,-4.664 -3.015,-7.022 12.47,36.624 24.903,28.334 30.461,43.525 -1.177,-0.327 -21.014,-7.468 -36.822,-23.188 -3.358,-3.325 -10.011,-10.656 -10.516,-11.34 19.573,26.51 32.079,27.86 47.391,34.691 0,0.01 0.021,0.035 0.021,0.048 0.012,0.036 0.068,0.221 0.086,0.256 0.074,-0.033 0.158,-0.07 0.239,-0.091 0.026,-0.022 0.047,-0.033 0.08,-0.033 2.122,-1.043 16.065,-5.902 26.681,-13.2 10.927,-7.517 23.39,-23.821 22.451,-22.64 -18.253,18.573 -21.075,22.785 -49.212,35.67 -0.027,0 -0.048,-0.01 -0.069,-0.021 -0.022,-0.131 -0.064,-0.257 -0.107,-0.387 0.011,-0.062 0.032,-0.121 0.054,-0.178 4.948,-13.579 19.476,-8.33 31.51,-45.554 -1.232,3.216 -2.527,6.382 -3.979,9.486 -0.457,-5.455 -2.042,-9.756 -1.865,-14.247 2.084,-0.693 7.742,-1.022 9.308,0.542 6.529,5.586 7.059,9.677 17.696,9.677 3.411,0.02 7.871,0.45 8.375,6.708 -0.627,0.922 -5.291,6.431 -9.703,10.809 -15.438,15.368 -29.249,15.664 -50.619,32.007 0.521,0 1.605,-1.131 2.029,-1.418 16.712,-11.864 28.719,-11.677 44.085,-24.249 7.082,-5.785 13.897,-15.044 14.63,-16.222 0.022,0.013 0.059,0.013 0.079,0.013 28.198,4.853 42.321,15.462 40.764,57.069 -126.388,-0.79 -143.547,2.572 -206.055,0.484 z"
           stroke-width="none"
           inkscape:connector-curvature="0"
           style="opacity:1;fill:#261b1b;stroke:none" />
      </g>
      <g
         id="svga-group-head">
        <g
           id="svga-group-ears-left">
          <path
             id="SvgjsPath6348"
             d="m 47.218,81.505 c -0.967,-2.487 -8.082,-6.002 -11.21,-5.447 -3.538,0.627 -4.838,4.356 -4.369,7.119 1.103,6.487 3.996,9.219 5.296,14.286 1.096,4.273 3.433,6.732 4.588,8.548 1.42,2.228 2.73,7.341 3.023,8.087 0.463,1.18 2.103,4.043 5.002,3.896 3.333,-0.172 7.545,-6.688 7.614,-8.135 0.382,-7.85 -7.429,-21.88 -9.944,-28.354 z"
             inkscape:connector-curvature="0"
             style="opacity:1;fill:#f0c7b1;stroke:#c27b55;stroke-width:1.5" />
          <path
             id="SvgjsPath6349"
             d="m 47.953,107.96 c 0,0 0.429,-1.071 -0.094,-2.022 -0.672,-1.223 -2.423,-3.468 -2.821,-4.811 -0.325,-1.098 -0.16,-3.445 -0.213,-4.593 -0.094,-2.03 -1.492,-3.42 -1.927,-4.585 -2.914,-7.793 -6.792,-12.623 -9,-13.626 -1.633,3.989 -0.339,6.907 1.94,13.045 -1.375,-8.342 -0.054,-10.95 -0.054,-10.95 0,0 4.018,3.465 6.001,11.172 0.359,1.391 -1.111,4.294 -0.83,5.705 0.352,1.772 4.184,5.201 5.257,6.635 0.837,1.117 1.741,4.03 1.741,4.03 z"
             stroke-width="none"
             inkscape:connector-curvature="0"
             style="opacity:1;fill:#c27b55" />
        </g>
        <g
           id="svga-group-ears-right">
          <path
             id="SvgjsPath6350"
             d="m 152.52,81.505 c 0.967,-2.487 8.082,-6.002 11.211,-5.447 3.539,0.627 4.838,4.356 4.369,7.119 -1.104,6.487 -3.996,9.219 -5.297,14.286 -1.096,4.273 -3.434,6.732 -4.588,8.548 -1.42,2.228 -2.73,7.341 -3.023,8.087 -0.463,1.18 -2.104,4.043 -5.002,3.896 -3.332,-0.172 -7.545,-6.688 -7.613,-8.135 -0.384,-7.85 7.429,-21.88 9.943,-28.354 z"
             inkscape:connector-curvature="0"
             style="opacity:1;fill:#f0c7b1;stroke:#c27b55;stroke-width:1.5" />
          <path
             id="SvgjsPath6351"
             d="m 151.785,107.96 c 0,0 -0.43,-1.071 0.094,-2.022 0.672,-1.223 2.424,-3.468 2.82,-4.811 0.324,-1.098 0.16,-3.445 0.215,-4.593 0.094,-2.03 1.49,-3.42 1.926,-4.585 2.914,-7.793 6.793,-12.623 9,-13.626 1.633,3.989 0.338,6.907 -1.939,13.045 1.375,-8.342 0.053,-10.95 0.053,-10.95 0,0 -4.018,3.465 -6.002,11.172 -0.357,1.391 1.111,4.294 0.83,5.705 -0.352,1.772 -4.184,5.201 -5.256,6.635 -0.837,1.117 -1.741,4.03 -1.741,4.03 z"
             stroke-width="none"
             inkscape:connector-curvature="0"
             style="opacity:1;fill:#c27b55" />
        </g>
        <g
           id="svga-group-faceshape-wrap">
          <g
             id="svga-group-faceshape-single">
            <path
               id="SvgjsPath6213"
               d="M 100.002,0.867 C 66.384,0.92 39.082,28.536 39.134,62.56 c 0.009,5.403 0.704,10.642 2.002,15.634 l 10e-4,0 c 0.012,0.054 10.289,31.434 12.948,44.055 2.38,11.298 12.959,20.462 17.72,25.456 5.47,5.742 12.307,14.237 28.197,14.162 15.889,0.075 22.727,-8.42 28.197,-14.162 4.761,-4.994 15.34,-14.158 17.72,-25.456 2.659,-12.621 12.937,-44 12.947,-44.055 l 0.002,0 C 160.166,73.202 160.862,67.963 160.87,62.56 160.923,28.536 133.62,0.92 100.002,0.867 Z"
               stroke-width="none"
               inkscape:connector-curvature="0"
               style="opacity:1;fill:#f0c7b1" />
            <path
               id="SvgjsPath6214"
               d="m 133.47,11.063 c 14.604,11.197 24.131,29.487 24.1,50.155 -0.008,5.403 -0.664,10.643 -1.892,15.634 l -0.002,0 c -0.011,0.054 -9.73,31.432 -12.246,44.052 -2.251,11.3 -12.256,20.462 -16.76,25.458 -5.173,5.742 -11.64,14.237 -26.667,14.162 -15.028,0.075 -21.495,-8.42 -26.668,-14.162 C 68.833,141.366 58.827,132.204 56.576,120.904 54.06,108.284 44.341,76.906 44.329,76.852 l -10e-4,0 C 43.1,71.86 42.443,66.621 42.435,61.218 42.405,40.55 51.932,22.26 66.536,11.064 50.014,22.105 39.103,41.046 39.136,62.56 c 0.009,5.403 0.704,10.642 2.002,15.634 l 0.001,0 c 0.012,0.054 10.289,31.434 12.948,44.055 2.38,11.298 12.959,20.462 17.72,25.456 5.47,5.742 12.307,14.237 28.197,14.162 15.889,0.075 22.727,-8.42 28.197,-14.162 4.761,-4.994 15.34,-14.158 17.72,-25.456 2.659,-12.621 12.937,-44 12.947,-44.055 l 0.002,0 c 1.298,-4.992 1.994,-10.231 2.002,-15.634 0.031,-21.514 -10.88,-40.456 -27.402,-51.497 z"
               stroke-width="none"
               inkscape:connector-curvature="0"
               style="opacity:1;fill:#e8b9a0" />
            <path
               id="SvgjsPath6215"
               d="M 100.002,0.867 C 66.384,0.92 39.082,28.536 39.134,62.56 c 0.009,5.403 0.704,10.642 2.002,15.634 l 10e-4,0 c 0.012,0.054 10.289,31.434 12.948,44.055 2.38,11.298 12.959,20.462 17.72,25.456 5.47,5.742 12.307,14.237 28.197,14.162 15.889,0.075 22.727,-8.42 28.197,-14.162 4.761,-4.994 15.34,-14.158 17.72,-25.456 2.659,-12.621 12.937,-44 12.947,-44.055 l 0.002,0 C 160.166,73.202 160.862,67.963 160.87,62.56 160.923,28.536 133.62,0.92 100.002,0.867 Z"
               inkscape:connector-curvature="0"
               style="opacity:1;fill:none;stroke:#c27b55;stroke-width:1.5" />
          </g>
        </g>
        <g
           id="svga-group-mouth-single-2">
          <path
             id="SvgjsPath3973"
             d="m 99.956,142.599 c -5.159,0 -9.49,-3.032 -9.49,-3.032 9.005,1.084 20.036,-0.644 20.036,-0.644 0,0 -4.031,3.676 -10.546,3.676 z"
             stroke-width="none"
             inkscape:connector-curvature="0"
             style="opacity:1;fill:#e8b9a0;stroke:none" />
          <path
             id="SvgjsPath3974"
             d="m 99.958,139.593 c -3.336,0.024 -10.989,-1.567 -13.867,-2.818 -1.703,-0.736 -4.649,-3.291 -6.698,-4.591 -0.787,-0.5 -0.46,-1.466 0.578,-1.505 2.524,-0.095 5.769,0.939 7.288,1.121 3.184,0.372 7.201,1.759 12.647,1.759 4.046,0 8.469,-1.103 11.289,-1.509 1.696,-0.244 5.619,-1.319 8.378,-1.439 1.041,-0.048 1.465,0.745 0.695,1.262 -2.156,1.464 -5.613,4.15 -7.478,4.902 -3.015,1.216 -9.824,2.797 -12.832,2.818 z"
             stroke-width="none"
             inkscape:connector-curvature="0"
             style="opacity:0.5;fill:#000000" />
          <path
             id="SvgjsPath3975"
             d="m 83.82,130.791 c 0,0 0.355,2.327 0.896,2.992 0.746,0.915 5.281,2.794 7.092,3.057 1.232,0.176 3.49,0.456 4.732,0.588 1.347,0.143 2.104,0.014 3.461,-0.021 1.462,-0.037 2.71,0.126 4.137,-0.13 1.017,-0.183 3.989,-0.8 4.96,-1.098 0.746,-0.231 2.25,-0.615 2.932,-0.951 0.567,-0.276 2.317,-1.278 2.664,-1.721 0.454,-0.581 0.876,-2.639 0.876,-2.639 l -31.75,-0.077 z"
             stroke-width="none"
             inkscape:connector-curvature="0"
             style="opacity:1;fill:#ffffff" />
          <path
             id="SvgjsPath3976"
             d="m 90.407,131.193 c 0,0 -0.646,5.066 -0.705,5.154 -0.058,0.088 -0.22,-5.154 -0.22,-5.154 l 0.925,0 z m 2.724,0.564 0.575,5.37 0.372,-5.37 -0.947,0 z m 6.351,0.792 0.718,4.879 0.464,-4.963 -1.182,0.084 z m 5.572,-1.025 c 1.207,0.084 1.611,5.223 1.611,5.223 l 0.166,-5.223 -1.777,0 z m 4.625,-0.628 c 0,0 0.479,4.904 0.547,4.812 0.063,-0.093 0.19,-4.812 0.19,-4.812 l -0.737,0 z m -23.355,-0.002 0.351,4.01 0.352,-4.01 -0.703,0 z m 26.665,-0.408 0.107,4.2 0.535,-4.231 -0.642,0.031 z"
             stroke-width="none"
             inkscape:connector-curvature="0"
             style="opacity:0.1;fill:#000000" />
          <path
             id="SvgjsPath3977"
             d="m 120.915,130.597 c -1.51,-0.389 -4.676,-0.119 -6.277,-0.281 -2.271,-0.229 -6.874,-0.393 -9.168,-0.342 -1.44,0.032 -4.278,0.438 -5.717,0.464 -1.477,0.026 -4.417,-0.441 -5.893,-0.451 -2.341,-0.011 -7.056,0.205 -9.353,0.513 -1.585,0.212 -4.825,-0.108 -6.095,0.455 -0.293,0.131 -0.117,0.719 0,0.941 1.071,2.003 5.197,4.264 8.767,6.188 4.587,2.474 9.41,3.241 13.203,3.242 5.004,0.003 10.898,-2.155 15.829,-5.407 2.182,-1.438 4.943,-2.923 5.4,-4.31 0.234,-0.7 -0.305,-0.911 -0.696,-1.012 z m -21.022,6.928 c -3.086,0.019 -10.246,-1.178 -13.269,-2.392 -1.813,-0.728 -4.59,-2.471 -6.481,-3.556 -0.73,-0.416 6.65,1.117 8.059,1.267 2.94,0.311 6.656,0.754 11.69,0.754 3.737,0 7.829,-0.205 10.437,-0.543 1.567,-0.204 9.693,-2.062 8.987,-1.63 -2.001,1.22 -5.367,3.084 -7.513,3.899 -2.722,1.038 -9.13,2.179 -11.91,2.201 z"
             stroke-width="none"
             inkscape:connector-curvature="0"
             style="opacity:1;fill:#da7c87;stroke:none" />
          <path
             id="SvgjsPath3978"
             d="m 83.833,135.39 c 3.211,0.502 10.441,3.463 16.517,3.303 6.333,-0.167 15.733,-4.55 16.972,-4.069 0.468,1.149 -12.22,6.698 -16.972,6.786 -4.265,0.077 -17.86,-4.715 -16.517,-6.02 z m 15.649,-2.841 c 3.857,-0.04 8.569,-0.425 11.745,-1.604 -3.616,-0.971 -8.605,0.11 -11.475,0.161 -3.722,0.067 -6.834,-0.896 -10.281,0.056 3.293,0.87 6.678,1.422 10.011,1.387 z"
             stroke-width="none"
             inkscape:connector-curvature="0"
             style="opacity:1;fill:#e28c96;stroke:none" />
          <path
             id="SvgjsPath3979"
             d="m 97.309,140.089 c -2.334,-0.406 -2.413,-0.571 -0.201,-0.402 1.353,0.102 2.705,0.126 4.02,0.028 0.174,-0.014 0.347,-0.027 0.52,-0.047 1.48,-0.15 3.075,-0.523 4.672,-1.007 2.499,-0.76 2.544,-0.575 0.065,0.428 -1.817,0.735 -3.511,1.27 -4.712,1.381 l -0.074,0.007 c -1.026,0.077 -2.565,-0.085 -4.29,-0.388 z"
             stroke-width="none"
             inkscape:connector-curvature="0"
             style="opacity:1;fill:#e99ca5;stroke:none" />
          <path
             id="SvgjsPath3980"
             d="m 77.08,133.202 c 0,0 -0.664,-1.505 -0.57,-2.065 0.129,-0.788 1.802,-2.347 1.802,-2.347 0,0 -1.012,1.795 -1.168,2.361 -0.152,0.548 -0.064,2.051 -0.064,2.051 z m 45.789,0.192 c 0,0 0.722,-1.636 0.622,-2.245 -0.142,-0.855 -1.96,-2.55 -1.96,-2.55 0,0 1.102,1.951 1.271,2.566 0.163,0.595 0.067,2.229 0.067,2.229 z"
             stroke-width="none"
             inkscape:connector-curvature="0"
             style="opacity:1;fill:#c27b55;stroke:none" />
        </g>
        <g
           id="svga-group-mouth-single">
          <path
             id="SvgjsPath6220"
             d="m 100.671,140.999 c -5.683,-0.008 -7.963,-3.983 -7.963,-3.983 6.845,2.441 15.408,0.264 15.408,0.264 0,0 -1.739,3.728 -7.445,3.719 z"
             style="opacity:1;fill:url(#SvgjsLinearGradient6221)"
             inkscape:connector-curvature="0" />
          <path
             id="SvgjsPath6224"
             d="m 81.783,130.557 c 3.57,-0.112 10.625,-0.609 13.211,-0.457 1.337,0.079 3.53,0.999 4.971,1.313 1.003,0.22 4.814,-0.817 5.842,-0.822 2.687,-0.017 8.513,1.274 11.642,1.782 0.173,0.027 0,0 0,0 0,0 -7.699,6.575 -17.56,6.143 -11.161,-0.491 -18.106,-7.959 -18.106,-7.959 0,0 -0.177,0.005 0,0 z"
             stroke-width="none"
             inkscape:connector-curvature="0"
             style="opacity:1;fill:#da7c87" />
          <path
             id="SvgjsPath6225"
             d="m 117.743,132.177 c -0.085,-0.126 -0.641,-0.245 -0.846,-0.221 -0.373,0.044 -0.643,0.389 -1.425,0.458 -0.904,0.084 -5.695,0.815 -7.002,0.782 -2.629,-0.064 -5.647,0.561 -8.157,0.451 -2.513,-0.11 -6.464,-1.159 -9.077,-1.344 -1.297,-0.092 -6.623,-1.333 -7.505,-1.507 -0.759,-0.15 -0.82,-0.506 -1.125,-0.607 -0.215,-0.074 -0.832,-0.023 -0.999,0.09 -0.145,0.1 -0.1,0.557 0.001,0.683 0.248,0.305 1.167,0.435 1.838,0.568 0.931,0.184 6.336,1.438 7.67,1.532 2.586,0.186 6.589,1.303 9.123,1.414 2.532,0.112 5.608,-0.587 8.21,-0.521 1.338,0.034 6.197,-0.699 7.156,-0.784 0.694,-0.064 1.556,-0.179 1.876,-0.402 0.153,-0.105 0.345,-0.46 0.262,-0.592 z"
             stroke-width="none"
             inkscape:connector-curvature="0"
             style="opacity:1;fill:#ac2e3d" />
          <path
             id="SvgjsPath6226"
             d="m 99.999,137.244 c -4.411,-0.192 -11.369,-1.912 -14.032,-4.152 1.629,0.195 5.155,0.481 6.772,0.693 1.997,0.265 4.761,1.003 6.795,1.192 2.196,0.202 5.2,-0.237 7.342,-0.422 1.79,-0.153 4.563,-0.661 6.35,-0.72 -3.005,1.793 -8.969,3.595 -13.227,3.409 z m 7.158,-4.638 c 1.602,-0.081 4.101,-0.628 5.694,-0.675 -1.796,-0.491 -4.499,-0.493 -6.406,-0.697 -1.646,-0.174 -4.155,0.69 -5.787,0.804 -1.838,0.132 -4.022,-1.204 -5.733,-1.333 -1.857,-0.138 -5.733,0.283 -7.555,0.604 1.556,0.17 4.94,0.433 6.472,0.682 1.878,0.306 4.573,0.966 6.522,1.052 1.998,0.088 4.819,-0.335 6.793,-0.437 z"
             stroke-width="none"
             inkscape:connector-curvature="0"
             style="opacity:1;fill:#e28c96" />
          <path
             id="SvgjsPath6227"
             d="m 100.006,136.455 c -2.626,-0.118 -6.989,-1.062 -8.873,-2.365 0.482,0.022 1.884,0.146 2.348,0.189 0.146,0.015 0.293,0.031 0.438,0.05 0.757,0.101 1.489,0.304 2.271,0.515 0.759,0.207 2.481,0.47 3.329,0.557 0.167,0.019 0.333,0.027 0.501,0.034 1.043,0.048 2.983,-0.061 3.943,-0.21 0.609,-0.095 1.182,-0.192 1.77,-0.247 0.32,-0.032 0.669,-0.047 1.061,-0.049 0.336,-0.003 0.689,0.006 1.036,0.017 -1.767,0.895 -5.117,1.628 -7.824,1.509 z"
             stroke-width="none"
             inkscape:connector-curvature="0"
             style="opacity:1;fill:#e99ca5" />
          <path
             id="SvgjsPath6228"
             d="m 79.382,131.481 c 0,0 -0.708,-1.188 -0.609,-1.633 0.139,-0.619 1.923,-1.85 1.923,-1.85 0,0 -1.08,1.415 -1.247,1.863 -0.161,0.433 -0.067,1.62 -0.067,1.62 z"
             stroke-width="none"
             inkscape:connector-curvature="0"
             style="opacity:1;fill:#c27b55" />
        </g>
        <g
           id="svga-group-eyes-left">
          <g
             id="svga-group-eyesback-left">
            <path
               id="SvgjsPath6246"
               d="m 76.732,78.383 c 4.587,0.679 7.931,3.488 10.773,7.94 0.004,0.005 0.013,0.004 0.018,0.008 0.007,0.027 0.021,0.053 0.026,0.08 0.255,1.007 -0.816,1.819 -2.155,2.438 -4.771,0.609 -9.359,1.489 -14.194,0.87 -9.681,-1.241 -9.855,-5.509 -10.326,-6.629 -0.252,-1.101 -0.325,-1.417 -0.311,-2.473 2.332,-1.366 4.043,-1.647 5.854,-2.005 2.124,-0.418 6.851,-0.744 10.315,-0.229 z"
               style="opacity:1;fill:url(#SvgjsRadialGradient6247)"
               inkscape:connector-curvature="0" />
          </g>
          <g
             id="svga-group-eyesiriswrapper-left"
             transform="translate(0.25,0)">
            <g
               id="svga-group-eyesiriscontrol-left">
              <g
                 id="svga-group-eyesiris-left">
                <path
                   id="SvgjsPath6304"
                   d="m 79.788,85.588 c -0.869,3.192 -4.162,5.073 -7.361,4.196 -3.197,-0.876 -5.084,-4.178 -4.214,-7.371 0.869,-3.195 4.168,-5.076 7.365,-4.198 3.194,0.875 5.081,4.177 4.21,7.373 z"
                   inkscape:connector-curvature="0"
                   style="opacity:1;fill:#681711;stroke:#3a0400;stroke-width:0.5" />
                <path
                   id="SvgjsPath6305"
                   d="m 78.855,85.662 c -0.849,2.452 -3.407,3.881 -5.899,3.199 -2.3,-0.631 -3.752,-2.838 -3.563,-5.171 0.853,-0.067 1.787,-0.087 2.756,-0.04 -0.01,0.033 -0.027,0.062 -0.036,0.096 -0.306,1.125 0.407,2.305 1.592,2.63 1.189,0.326 2.401,-0.326 2.707,-1.451 0.039,-0.147 0.06,-0.294 0.065,-0.439 0.813,0.296 1.611,0.679 2.378,1.176 z"
                   stroke-width="none"
                   inkscape:connector-curvature="0"
                   style="opacity:1;fill:#77251f" />
                <path
                   id="SvgjsPath6306"
                   d="m 74.813,82.21 c -1.203,-0.344 -2.429,0.342 -2.739,1.54 -0.311,1.191 0.412,2.438 1.614,2.783 1.204,0.345 2.43,-0.342 2.741,-1.534 0.313,-1.198 -0.413,-2.444 -1.616,-2.789 z m 0.262,4.232 c -0.5,0.156 -1.017,-0.051 -1.154,-0.462 -0.133,-0.411 0.163,-0.867 0.667,-1.019 0.503,-0.156 1.019,0.051 1.157,0.459 0.136,0.411 -0.163,0.867 -0.67,1.022 z"
                   stroke-width="none"
                   inkscape:connector-curvature="0"
                   style="opacity:0.9;fill:#000000" />
                <path
                   id="SvgjsPath6307"
                   d="m 70.811,87.159 c -0.37,0.222 -0.922,0.023 -1.238,-0.447 -0.316,-0.466 -0.269,-1.024 0.102,-1.247 0.368,-0.219 0.925,-0.021 1.239,0.446 0.312,0.467 0.267,1.027 -0.103,1.248 z"
                   stroke-width="none"
                   inkscape:connector-curvature="0"
                   style="opacity:0.6;fill:#ffffff" />
                <path
                   id="SvgjsPath6308"
                   d="m 78.71,83.74 c -0.846,0.507 -2.117,0.051 -2.837,-1.02 -0.72,-1.072 -0.612,-2.352 0.234,-2.857 0.844,-0.509 2.118,-0.053 2.834,1.019 0.719,1.072 0.615,2.35 -0.231,2.858 z"
                   stroke-width="none"
                   inkscape:connector-curvature="0"
                   style="opacity:0.8;fill:#ffffff" />
              </g>
            </g>
          </g>
          <g
             id="svga-group-eyesfront-left">
            <path
               id="SvgjsPath6271"
               d="m 55.112,83.583 c 3.224,11.315 7.475,23.313 17.685,23.669 10.21,0.356 22.135,-7.239 22.29,-22.238 C 95.26,68.247 84.613,61.633 74.403,61.277 64.193,60.921 50.307,66.714 55.112,83.583 Z m 5.763,-0.493 c -0.252,-1.101 -0.325,-1.417 -0.311,-2.473 2.027,-1.21 4.04,-1.547 5.851,-1.905 2.123,-0.418 6.853,-0.845 10.317,-0.329 4.587,0.679 7.931,3.488 10.773,7.94 0.004,0.005 0.013,0.004 0.018,0.008 0.007,0.027 0.021,0.053 0.026,0.08 0.255,1.007 -0.816,1.819 -2.155,2.438 -4.771,0.609 -9.359,1.489 -14.194,0.87 C 61.519,88.478 61.345,84.21 60.875,83.09 Z"
               stroke-width="none"
               inkscape:connector-curvature="0"
               style="opacity:1;fill:#f0c7b1" />
            <path
               id="SvgjsPath6272"
               d="m 74.225,95.171 c 9.256,1.401 17.847,-3.01 19.186,-9.859 1.34,-6.849 -5.072,-13.537 -14.329,-14.94 -9.258,-1.399 -17.845,3.012 -19.185,9.862 -1.34,6.848 5.07,13.532 14.328,14.937 z M 60.563,80.617 c 2.125,-1.141 4.04,-1.547 5.851,-1.905 2.123,-0.418 6.853,-0.845 10.317,-0.329 4.587,0.679 7.931,3.488 10.773,7.94 0.004,0.005 0.013,0.004 0.018,0.008 0.007,0.027 0.021,0.053 0.026,0.08 0.255,1.007 -0.816,1.819 -2.155,2.438 -4.771,0.609 -9.359,1.489 -14.194,0.87 C 61.518,88.478 61.344,84.21 60.873,83.09 60.622,81.989 60.55,81.672 60.563,80.617 Z"
               style="opacity:1;fill:url(#SvgjsRadialGradient6273)"
               inkscape:connector-curvature="0" />
            <path
               id="SvgjsPath6277"
               d="m 60.875,83.09 c -0.252,-1.101 -0.325,-1.417 -0.311,-2.473 2.092,-1.175 4.04,-1.547 5.851,-1.905 2.123,-0.418 6.853,-0.845 10.317,-0.329 4.587,0.679 7.931,3.488 10.773,7.94 0.004,0.005 0.013,0.004 0.018,0.008 0.007,0.027 0.021,0.053 0.026,0.08 0.255,1.007 -0.816,1.819 -2.155,2.438 -4.771,0.609 -9.359,1.489 -14.194,0.87 C 61.519,88.478 61.345,84.21 60.875,83.09 Z"
               style="opacity:1;fill:url(#SvgjsRadialGradient6278)"
               inkscape:connector-curvature="0" />
            <path
               id="SvgjsPath6281"
               d="m 76.327,75.748 c 3.294,0.539 6.505,2.054 9.48,3.945 0.637,0.404 1.366,0.865 2.521,1.451 -0.828,-0.188 -1.594,-0.617 -2.309,-1.011 0.736,0.698 1.422,1.529 1.982,2.334 C 85.48,79.308 80.704,76.929 76.641,76.118 72.739,75.339 65.652,75.854 60.39,78.16 65.208,75.449 72.237,75.08 76.327,75.748 Z"
               stroke-width="none"
               inkscape:connector-curvature="0"
               style="opacity:1;fill:#c27b55" />
            <path
               id="SvgjsPath6282"
               d="m 87.508,86.277 c -2.847,-4.34 -6.193,-7.082 -10.781,-7.747 -4.833,-0.705 -11.271,-0.221 -15.034,1.843 -0.308,0.169 -1.607,1.249 -1.401,0.117 0.874,-1.167 4.322,-2.523 5.993,-2.928 18.745,-4.543 22.297,10.292 21.223,8.715 z M 60.646,82.841 c -0.716,2.063 0.861,6.654 10.145,7.503 6.595,0.602 15.767,-1.75 14.634,-1.613 C 80.646,89.32 76.05,90.18 71.206,89.57 60.224,88.19 61.468,83.023 60.646,82.841 Z"
               stroke-width="none"
               inkscape:connector-curvature="0"
               style="opacity:1;fill:#000000" />
          </g>
        </g>
        <g
           id="svga-group-eyes-right">
          <g
             id="svga-group-eyesback-right">
            <path
               id="SvgjsPath6254"
               d="m 122.867,78.383 c -4.586,0.679 -7.931,3.488 -10.773,7.94 -0.004,0.005 -0.012,0.004 -0.018,0.008 -0.006,0.027 -0.02,0.053 -0.025,0.08 -0.256,1.007 0.815,1.819 2.154,2.438 4.771,0.609 9.359,1.489 14.194,0.87 9.681,-1.241 9.855,-5.509 10.325,-6.629 0.253,-1.101 0.325,-1.417 0.312,-2.473 -2.331,-1.366 -4.043,-1.647 -5.854,-2.005 -2.123,-0.418 -6.85,-0.744 -10.315,-0.229 z"
               style="opacity:1;fill:url(#SvgjsRadialGradient6255)"
               inkscape:connector-curvature="0" />
          </g>
          <g
             id="svga-group-eyesiriswrapper-right"
             transform="translate(-0.25,0)">
            <g
               id="svga-group-eyesiriscontrol-right">
              <g
                 id="svga-group-eyesiris-right">
                <path
                   id="SvgjsPath6309"
                   d="m 131.788,85.588 c -0.869,3.192 -4.162,5.073 -7.362,4.196 -3.196,-0.876 -5.084,-4.178 -4.214,-7.371 0.869,-3.195 4.169,-5.076 7.365,-4.198 3.195,0.875 5.081,4.177 4.211,7.373 z"
                   inkscape:connector-curvature="0"
                   style="opacity:1;fill:#681711;stroke:#3a0400;stroke-width:0.5" />
                <path
                   id="SvgjsPath6310"
                   d="m 130.855,85.662 c -0.849,2.452 -3.408,3.881 -5.899,3.199 -2.3,-0.631 -3.753,-2.838 -3.563,-5.171 0.854,-0.067 1.787,-0.087 2.756,-0.04 -0.01,0.033 -0.027,0.062 -0.036,0.096 -0.306,1.125 0.407,2.305 1.593,2.63 1.189,0.326 2.401,-0.326 2.707,-1.451 0.038,-0.147 0.06,-0.294 0.065,-0.439 0.812,0.296 1.611,0.679 2.377,1.176 z"
                   stroke-width="none"
                   inkscape:connector-curvature="0"
                   style="opacity:1;fill:#77251f" />
                <path
                   id="SvgjsPath6311"
                   d="m 126.813,82.21 c -1.202,-0.344 -2.429,0.342 -2.738,1.54 -0.312,1.191 0.412,2.438 1.613,2.783 1.204,0.345 2.431,-0.342 2.742,-1.534 0.311,-1.198 -0.414,-2.444 -1.617,-2.789 z m 0.262,4.232 c -0.5,0.156 -1.018,-0.051 -1.154,-0.462 -0.133,-0.411 0.163,-0.867 0.667,-1.019 0.503,-0.156 1.019,0.051 1.157,0.459 0.136,0.411 -0.163,0.867 -0.67,1.022 z"
                   stroke-width="none"
                   inkscape:connector-curvature="0"
                   style="opacity:0.9;fill:#000000" />
                <path
                   id="SvgjsPath6312"
                   d="m 122.812,87.159 c -0.37,0.222 -0.923,0.023 -1.238,-0.447 -0.316,-0.466 -0.27,-1.024 0.102,-1.247 0.367,-0.219 0.926,-0.021 1.239,0.446 0.312,0.467 0.266,1.027 -0.103,1.248 z"
                   stroke-width="none"
                   inkscape:connector-curvature="0"
                   style="opacity:0.6;fill:#ffffff" />
                <path
                   id="SvgjsPath6313"
                   d="m 130.71,83.74 c -0.846,0.507 -2.116,0.051 -2.837,-1.02 -0.72,-1.072 -0.612,-2.352 0.234,-2.857 0.845,-0.509 2.117,-0.053 2.834,1.019 0.719,1.072 0.616,2.35 -0.231,2.858 z"
                   stroke-width="none"
                   inkscape:connector-curvature="0"
                   style="opacity:0.8;fill:#ffffff" />
              </g>
            </g>
          </g>
          <g
             id="svga-group-eyesfront-right">
            <path
               id="SvgjsPath6292"
               d="m 125.197,61.277 c -10.211,0.356 -20.857,6.97 -20.685,23.737 0.154,15 12.079,22.595 22.29,22.238 10.21,-0.356 16.187,-17.323 17.685,-23.669 4.03,-17.071 -9.08,-22.662 -19.29,-22.306 z m 3.202,28.442 c -4.835,0.619 -9.423,-0.261 -14.194,-0.87 -1.339,-0.618 -2.41,-1.43 -2.154,-2.438 0.006,-0.027 0.02,-0.053 0.025,-0.08 0.006,-0.004 0.014,-0.003 0.018,-0.008 2.843,-4.452 6.188,-7.261 10.773,-7.94 3.465,-0.516 8.195,-0.089 10.318,0.329 1.811,0.357 3.824,0.694 5.851,1.905 0.014,1.055 -0.059,1.372 -0.312,2.473 -0.469,1.12 -0.644,5.388 -10.325,6.629 z"
               stroke-width="none"
               inkscape:connector-curvature="0"
               style="opacity:1;fill:#f0c7b1" />
            <path
               id="SvgjsPath6293"
               d="m 139.703,80.234 c -1.34,-6.85 -9.928,-11.261 -19.186,-9.862 -9.257,1.403 -15.669,8.091 -14.328,14.94 1.339,6.849 9.93,11.26 19.186,9.859 9.258,-1.405 15.668,-8.089 14.328,-14.937 z m -0.978,2.856 c -0.47,1.121 -0.645,5.388 -10.325,6.629 -4.835,0.619 -9.423,-0.261 -14.194,-0.87 -1.339,-0.618 -2.41,-1.43 -2.154,-2.438 0.006,-0.027 0.02,-0.053 0.025,-0.08 0.006,-0.004 0.014,-0.003 0.018,-0.008 2.843,-4.452 6.188,-7.261 10.773,-7.94 3.465,-0.516 8.195,-0.089 10.318,0.329 1.811,0.357 3.727,0.764 5.851,1.905 0.013,1.055 -0.059,1.372 -0.312,2.473 z"
               style="opacity:1;fill:url(#SvgjsRadialGradient6294)"
               inkscape:connector-curvature="0" />
            <path
               id="SvgjsPath6298"
               d="m 138.725,83.09 c 0.253,-1.101 0.325,-1.417 0.312,-2.473 -2.092,-1.175 -4.04,-1.547 -5.851,-1.905 -2.123,-0.418 -6.854,-0.845 -10.318,-0.329 -4.586,0.679 -7.931,3.488 -10.773,7.94 -0.004,0.005 -0.012,0.004 -0.018,0.008 -0.006,0.027 -0.02,0.053 -0.025,0.08 -0.256,1.007 0.815,1.819 2.154,2.438 4.771,0.609 9.359,1.489 14.194,0.87 9.68,-1.241 9.855,-5.509 10.325,-6.629 z"
               style="opacity:1;fill:url(#SvgjsRadialGradient6299)"
               inkscape:connector-curvature="0" />
            <path
               id="SvgjsPath6302"
               d="m 123.273,75.748 c -3.295,0.539 -6.506,2.054 -9.48,3.945 -0.637,0.404 -1.367,0.865 -2.521,1.451 0.828,-0.188 1.594,-0.617 2.309,-1.011 -0.736,0.698 -1.422,1.529 -1.982,2.334 2.521,-3.159 7.297,-5.538 11.359,-6.349 3.902,-0.779 10.989,-0.264 16.252,2.042 -4.819,-2.711 -11.848,-3.08 -15.937,-2.412 z"
               stroke-width="none"
               inkscape:connector-curvature="0"
               style="opacity:1;fill:#c27b55" />
            <path
               id="SvgjsPath6303"
               d="m 133.314,77.563 c 1.672,0.405 5.119,1.761 5.994,2.928 0.205,1.132 -1.094,0.052 -1.402,-0.117 -3.764,-2.064 -10.201,-2.548 -15.033,-1.843 -4.588,0.665 -7.936,3.407 -10.781,7.747 -1.074,1.576 2.478,-13.259 21.222,-8.715 z m -4.919,12.007 c -4.844,0.61 -9.439,-0.25 -14.219,-0.839 -1.134,-0.137 8.038,2.215 14.633,1.613 9.284,-0.849 10.861,-5.44 10.145,-7.503 -0.823,0.182 0.422,5.349 -10.559,6.729 z"
               stroke-width="none"
               inkscape:connector-curvature="0"
               style="opacity:1;fill:#000000" />
          </g>
        </g>
        <g
           id="svga-group-facehighlight-single">
          <path
             id="SvgjsPath2885"
             d="m 141,113.974 c 0.035,22.622 -18.292,40.994 -40.938,41.025 -22.642,0.037 -41.028,-18.273 -41.063,-40.9 -0.035,-22.62 18.292,-41.064 40.937,-41.1 22.643,-0.035 41.031,18.35 41.064,40.975 z"
             style="opacity:1;fill:url(#SvgjsRadialGradient2886)"
             inkscape:connector-curvature="0" />
          <path
             id="SvgjsPath2889"
             d="m 137.5,53.999 c 0,20.711 -16.789,37.5 -37.499,37.5 -20.711,0 -37.501,-16.789 -37.501,-37.5 0,-20.711 16.79,-37.5 37.501,-37.5 20.71,0 37.499,16.789 37.499,37.5 z"
             style="opacity:1;fill:url(#SvgjsRadialGradient2890)"
             inkscape:connector-curvature="0" />
        </g>
        <g
           id="svga-group-eyebrows-left">
          <path
             id="SvgjsPath6322"
             d="m 52.488,73.87 c 7.475,-9.383 20.338,-7.822 30.878,-6.314 2.681,0.384 5.441,0.672 8.07,1.336 1.884,0.475 3.365,2.622 1.851,4.356 C 92.579,74.073 91.034,73.92 90.08,73.9 77.459,73.645 63.193,66.387 52.488,73.87 Z"
             stroke-width="none"
             inkscape:connector-curvature="0"
             style="opacity:1;fill:#2a232b" />
        </g>
        <g
           id="svga-group-eyebrows-right">
          <path
             id="SvgjsPath6323"
             d="m 147.577,73.49 c -2.164,-1.448 -4.454,-2.47 -7.043,-2.889 -9.497,-1.54 -27.586,4.79 -32.341,3.45 -2.912,-0.822 -2.323,-3.739 -1.035,-4.458 0.775,-0.433 0.99,-0.422 7.909,-1.612 11.757,-2.02 24.921,-3.626 32.51,5.509 z"
             stroke-width="none"
             inkscape:connector-curvature="0"
             style="opacity:1;fill:#2a232b" />
        </g>
        <g
           id="svga-group-nose-single">
          <path
             id="SvgjsPath6345"
             d="m 96.831,88.524 c 0,0 -1.399,11.117 -2.026,13.281 -1.379,4.752 -6.168,11.417 -5.239,14.429 1.859,6.022 7.537,4.493 10.524,4.471 2.763,-0.022 8.072,1.552 9.162,-2.37 0.352,-1.266 -0.441,-4.466 -0.441,-4.466 0,0 -2.644,3.112 -8.875,2.767 -1.778,-0.099 -4.671,-2.096 -4.704,-4.912 -0.043,-3.817 1.802,-7.035 2.205,-10.824 0.304,-2.878 -0.606,-12.376 -0.606,-12.376 z"
             stroke-width="none"
             inkscape:connector-curvature="0"
             style="opacity:1;fill:#e1ac8f" />
          <path
             id="SvgjsPath6346"
             d="m 105.194,118.969 c 1.075,0 1.366,0.326 1.366,0.729 0,0.404 -0.335,1.026 -1.366,0.73 -1.134,-0.323 -3.113,-0.175 -3.113,-0.175 0,0 2.036,-1.284 3.113,-1.284 z m -10.272,0 c -1.077,0.001 -1.366,0.328 -1.366,0.733 -10e-4,0.403 0.323,0.983 1.366,0.729 1.15,-0.282 3.112,-0.175 3.112,-0.175 0,0 -2.035,-1.283 -3.112,-1.287 z m 13.888,-5.1 c 0,0 1.489,1.933 1.18,3.975 -0.301,1.983 -3.31,2.861 -3.31,2.861 0,0 2.089,-1.516 2.342,-3.356 0.118,-0.863 -0.212,-3.48 -0.212,-3.48 z m -18.383,-1.986 c 0,0 -1.086,2.704 -0.772,4.352 0.571,2.976 3.704,4.164 3.704,4.164 0,0 -1.955,-2.039 -2.65,-3.842 -0.761,-1.97 -0.282,-4.674 -0.282,-4.674 z"
             stroke-width="none"
             inkscape:connector-curvature="0"
             style="opacity:1;fill:#c27b55" />
          <path
             id="SvgjsPath6347"
             d="m 105.141,115.311 c 1.043,-0.889 1.148,-1.396 0.932,-1.729 -0.215,-0.334 -0.841,-0.545 -1.714,0.528 -0.963,1.18 -3.056,2.054 -3.056,2.054 0,0 2.795,0.034 3.838,-0.853 z"
             stroke-width="none"
             inkscape:connector-curvature="0"
             style="opacity:1;fill:#ffe4d6" />
        </g>
        <g
           id="svga-group-beardwrap">
          <g
             id="svga-group-beard-single">
            <path
               id="SvgjsPath6331"
               d="m 100,18.13 0,0 0,0 0,0 z"
               stroke-width="none"
               inkscape:connector-curvature="0"
               style="opacity:1;fill:#2a232b" />
          </g>
        </g>
        <g
           id="svga-group-mustache-single">
          <path
             id="SvgjsPath6333"
             d="m 100,18.13 0,0 0,0 0,0 z"
             stroke-width="none"
             inkscape:connector-curvature="0"
             style="opacity:1;fill:#2a232b" />
        </g>
        <g
           id="svga-group-hair-front">
          <path
             id="SvgjsPath6337"
             d="m 164.354,50.741 c -0.165,-3.292 -1.526,-8.266 -2.485,-11.305 -1.113,1.915 -1.224,1.915 -1.877,2.927 -0.21,-1.212 -1.637,-13.946 -6.382,-21.2 -0.544,1.912 0.056,4.105 -1.088,5.567 -2.565,-5.342 -6.325,-14.564 -14.831,-20.638 0.87,2.274 0.411,2.914 0.605,3.684 -2.516,-3.628 -5.512,-5.54 -10.311,-8.295 0,1.687 0.163,2.755 0.163,2.755 -1.758,-2.027 -5.78,-7.704 -10.939,-10.969 0.243,0.876 -0.251,2.776 -0.075,3.715 -1.69,-3.599 -6.87,-10.572 -11.955,-9.723 -1.45,-1.439 -2.657,-3.886 -3.964,-5.516 -0.82,4.329 -7.635,13.833 -14.676,18.103 0.232,-1.79 -0.102,-3.37 -0.543,-5.19 -1.27,2.61 -5.393,7.668 -8.387,8.851 C 77.91,2.195 77.677,-0.3 77.677,-0.3 76.088,1.785 74.714,2.942 72.617,4.784 72.643,3.612 73.241,1.142 73.596,-0.095 70.298,1.367 67.027,5.247 64.628,8.059 64.367,6.455 64.899,3.095 65.441,2.356 53.647,10.157 48.067,16.424 42.691,31.51 42.34,30.758 42.098,29.839 41.984,27.344 35.259,38.281 31.444,45.86 38.525,73.155 c -1.445,-0.857 -2.233,-1.482 -3.38,-2.611 1.693,11.378 4.166,15.151 12.679,24.861 4.188,-4.89 1.939,-13.492 1.253,-17.578 0.099,-6.172 1.819,-5.103 2.072,-7.899 0.114,-1.255 0.776,-3.367 0.659,-4.622 -0.472,-5.024 1.132,-13.964 3.475,-19.847 3.592,-5.277 7.713,-8.823 13.048,-12.029 8.422,-1.67 16.253,1.805 18.647,2.425 4.326,1.12 21.693,1.12 26.021,0 2.995,-0.775 11.371,-4.294 20.026,-1.996 6.533,3.737 10.179,7.242 12.862,14.031 1.712,5.4 2.685,12.117 2.28,16.415 -0.117,1.255 0.449,4.367 0.563,5.623 0.104,1.147 1.568,3.689 1.842,4.807 1.123,4.612 -1.238,16.915 -1.238,16.915 -0.065,1.727 0.09,3.432 0.646,5.076 6.195,-3.866 6.614,-6.152 7.502,-9.064 0.732,-2.409 4.626,-11.52 4.744,-13.19 -0.79,0.872 -2.409,1.954 -3.271,2.362 0.708,-2.756 3.952,-7.96 4.58,-10.966 1.105,-5.297 1.09,-9.636 0.819,-15.127 z"
             stroke-width="none"
             inkscape:connector-curvature="0"
             style="opacity:1;fill:#2c2219" />
          <path
             id="SvgjsPath6338"
             d="m 164.354,50.741 c -0.165,-3.292 -1.526,-8.266 -2.485,-11.305 -1.113,1.915 -1.224,1.915 -1.877,2.927 -0.21,-1.212 -1.637,-13.946 -6.382,-21.2 -0.544,1.912 0.056,4.105 -1.088,5.567 -2.565,-5.342 -6.325,-14.564 -14.831,-20.638 0.87,2.274 0.411,2.914 0.605,3.684 -2.516,-3.628 -5.512,-5.54 -10.311,-8.295 0,1.687 0.163,2.755 0.163,2.755 -1.758,-2.027 -5.78,-7.704 -10.939,-10.969 0.243,0.876 -0.251,2.776 -0.075,3.715 -1.69,-3.599 -6.87,-10.572 -11.955,-9.723 -1.45,-1.439 -2.657,-3.886 -3.964,-5.516 -0.82,4.329 -7.635,13.833 -14.676,18.103 0.232,-1.79 -0.102,-3.37 -0.543,-5.19 -1.27,2.61 -5.393,7.668 -8.387,8.851 C 77.91,2.195 77.677,-0.3 77.677,-0.3 76.088,1.785 74.714,2.942 72.617,4.784 72.643,3.612 73.241,1.142 73.596,-0.095 70.298,1.367 67.027,5.247 64.628,8.059 64.367,6.455 64.899,3.095 65.441,2.356 53.647,10.157 48.067,16.424 42.691,31.51 42.34,30.758 42.098,29.839 41.984,27.344 35.259,38.281 31.444,45.86 38.525,73.155 37.08,72.298 36.292,71.673 35.145,70.544 36.791,81.605 39.191,85.495 47.143,94.622 43.336,88.193 38.709,82.69 37,75 c 2,1 5,3 7,4 -5,-14 -10,-32 -3,-45 1,4 3.536,8.736 5.536,11.736 C 42.163,33.861 52,19 59,10 c 0,5 -1,11 1,16 0,-7 5,-11 8,-17 0,4 -1,7 1,11 1,-5 2,-10 5,-14 2,4 1,8 3,12 0,-6 3,-9 4,-14 2.203,5.069 4,6 5,10 C 85,3 100.203,2.069 101.203,-8.931 102.203,-1.931 104,3 103,11 c 4,-5 6,-11 7,-18 7,6 5,14 8,21 2,-4 2,-9 3,-14 4,7 8,15 11,23 1,-5 2.869,-7.264 0,-15 7,5 12,14 11,23 1,-5 2,-10 2,-15 1,11 8,21 7,33 2,-5 4,-10 4,-16 0.914,10.055 2.649,20.944 -0.112,31.143 C 157.422,60.349 160,56.819 160,52 c 3,11 -7,20 -6,31 0,-1.705 2.9,-2.685 3.757,-4.176 0.081,-0.275 0.161,-0.549 0.243,-0.824 0,0.295 -0.095,0.566 -0.243,0.824 -1.587,5.382 -2.937,10.756 -4.976,15.966 3.552,-2.768 3.972,-4.738 4.7,-7.128 0.732,-2.409 4.626,-11.52 4.744,-13.19 -0.79,0.872 -2.409,1.954 -3.271,2.362 0.708,-2.756 3.952,-7.96 4.58,-10.966 1.106,-5.297 1.091,-9.636 0.82,-15.127 z"
             stroke-width="none"
             inkscape:connector-curvature="0"
             style="opacity:1;fill:#3b3128" />
          <path
             id="SvgjsPath6339"
             d="m 161.665,37.305 c -0.379,1.596 -0.486,1.958 -1.128,3.53 -0.481,-5.606 -2.956,-14.695 -7.356,-21.02 -0.135,2.162 -0.249,3.328 -0.582,5.35 -1.185,-4.271 -6.48,-13.985 -15.768,-20.25 0.117,0.35 0.243,0.7 0.368,1.05 l 0,0.01 c 0.269,0.782 0.497,1.646 0.749,2.51 -3.827,-4.758 -7.283,-5.571 -10.618,-7.87 0.17,0.983 0.271,1.968 0.281,2.04 -4.046,-5.492 -7.033,-7.687 -10.743,-9.77 0.037,0.462 0.146,2.427 0.123,3.628 -2.432,-5.127 -4.641,-8.986 -11.875,-9.698 -0.518,-1 -2.313,-4.095 -4.139,-5.98 -2.3,8.074 -8.614,13.707 -14.156,18.47 0,-1.865 -0.302,-3.701 -0.718,-5.49 -2.252,4.016 -3.98,6.186 -8.262,9.45 0.077,-0.766 0.157,-3.07 0.097,-4.47 -1.174,1.616 -3.048,3.649 -5.119,5.41 0,0 1.164,-4.899 1.174,-4.95 -0.156,0.08 -0.313,0.15 -0.476,0.25 -0.97,0.244 -5.192,2.951 -8.911,7.81 0.362,-3.423 1.047,-4.68 1.29,-5.68 -11.102,6.362 -19.91,16.272 -23.396,28.94 -0.183,-1.78 -0.263,-3.29 -0.263,-3.85 -5.115,6.421 -7.534,13.02 -7.872,14.68 -2.056,9.273 0.458,24.735 3.51,31.24 -1.917,-1.524 -0.184,0.004 -3.2,-2.73 0,4.709 1,8.023 2.725,12.09 2.438,5.747 5.88,9.351 10.424,13.4 -4.686,-5.73 -11.09,-13.702 -12.354,-24.13 0.847,0.833 1.34,1.163 2.793,2.27 l 0.01,0 c 0,0.01 0,0.01 0,0.01 0.647,0.445 0.262,0.244 1.017,0.67 -7.5,-27.167 -2.066,-37.896 2.511,-46.39 0.124,3.95 0.819,5.709 2.144,7.9 -0.678,-1.744 -0.593,-1.174 -1.116,-3.29 3.622,-11.552 12.162,-20.972 21.352,-28.78 0.241,-0.2 0.474,-0.39 0.717,-0.57 -0.32,0.826 -0.824,3.42 -0.824,5.01 -2.103,2.984 -2.484,5.539 -2.676,6.63 0.333,-1 0.693,-2.642 2.686,-5.36 l 0,-0.01 c 2.599,-4.016 7.259,-7.938 9.27,-9.3 -1.309,4.38 -1.364,6.104 -1.289,9.34 0.189,-1.823 0.17,-1.918 0.61,-4.38 1.673,-1.295 3.37,-2.965 4.868,-4.95 -0.109,2.301 0.029,5.486 -1.271,8.33 1.1,-1.655 1.532,-3.7 1.532,-4.7 1.309,-0.804 4.459,-2.157 8.106,-8.4 0.789,5.342 0.201,8.289 -0.592,10.43 0.645,-1.211 1.512,-2.889 1.512,-5.79 6.763,-4.663 11.506,-8.768 14.235,-16.83 0.076,-0.31 0.156,-0.61 0.212,-0.91 1.518,2.183 7.604,11.9 6.382,14.49 1.547,-1.57 -1.223,-7.455 -2.308,-9.47 7.645,1.914 8.36,4.039 13.572,14.82 -0.604,-2.008 -1.115,-3.768 -1.461,-4.75 0.128,-1.828 0.006,-2.7 -0.091,-3.7 5.226,4.036 13.838,13.564 13.838,20.81 0.431,-2.713 0.241,-5.092 -1.939,-9.13 -0.271,-0.49 -0.543,-0.97 -0.836,-1.39 -0.071,-0.628 -0.337,-1.92 -0.337,-1.92 1.802,1.904 5.755,2.333 10.442,9.38 0.621,0.848 3.49,6.394 4.625,8.37 -2.375,-6.62 -3.041,-7.672 -3.878,-9.23 -0.4,-1.75 -0.362,-1.621 -0.99,-3.44 10.538,10.395 14.488,16.94 15.863,31.69 0.243,-3.948 0.12,-7.996 -1.017,-11.76 0.323,-1.404 0.551,-2.975 0.715,-4.49 0.695,1.441 3.522,8.543 4.908,15.4 1.206,6.061 1.19,9.764 0.891,13.85 1.025,-4.236 1.109,-8.009 0.961,-9.49 0.363,-0.564 0.646,-1.233 0.892,-1.78 1.945,10.561 4.878,19.245 -3.636,37.52 0.972,-0.517 2.738,-1.491 3.782,-2.74 0,0 -2.979,7.104 -4.577,11.66 -2.787,6.939 -2.47,6.195 -7.099,9.82 5.116,-2.12 6.527,-5.081 8.205,-9.4 3.162,-9.217 2.862,-6.158 5.255,-15.11 -1.086,1.406 -1.966,2.511 -3.328,3.68 9.292,-16.891 4.336,-28.428 1.554,-38.59 z"
             stroke-width="none"
             inkscape:connector-curvature="0"
             style="opacity:1;fill:#0d0905" />
        </g>
        <g
           id="svga-group-glasses-single">
          <path
             id="SvgjsPath6324"
             d="m 100,18.13 0,0 0,0 0,0 z"
             stroke-width="none"
             inkscape:connector-curvature="0"
             style="opacity:1;fill:#26120b" />
        </g>
      </g>
    </g>
    <rect
       id="SvgjsRect1036"
       width="200"
       height="15"
       x="0"
       y="185"
       style="display:none;opacity:0.5;fill:#ecf0f1" />
    <text
       id="SvgjsText1037"
       style="font-weight:400;font-size:10.07999992px;font-family:Roboto, 'Helvetica Neue', Helvetica, Arial, sans-serif;text-anchor:middle;display:none;fill:#000000"
       font-size="0.84em"
       font-weight="400"
       x="100"
       y="185">
      <tspan
         id="SvgjsTspan1038"
         dy="100"
         x="100"
         style="font-weight:400;font-size:8.46719933px;font-family:Roboto, 'Helvetica Neue', Helvetica, Arial, sans-serif;text-anchor:middle">Created on AvatarMaker.com</tspan>
    </text>
  </g>
  <defs
     id="SvgjsDefs1001">
    <radialGradient
       id="SvgjsRadialGradient2886"
       cx="100"
       cy="114"
       r="41"
       gradientUnits="userSpaceOnUse"
       class="svga-on-canvas-facehighlight-gradient-single-0">
      <stop
         id="SvgjsStop2887"
         stop-opacity="0.5"
         stop-color="#ffe4d6"
         offset="0" />
      <stop
         id="SvgjsStop2888"
         stop-opacity="0"
         stop-color="#f0c7b1"
         offset="0.9" />
    </radialGradient>
    <radialGradient
       id="SvgjsRadialGradient2890"
       cx="100"
       cy="54"
       r="37"
       gradientUnits="userSpaceOnUse"
       class="svga-on-canvas-facehighlight-gradient-single-1">
      <stop
         id="SvgjsStop2891"
         stop-opacity="0.5"
         stop-color="#ffe4d6"
         offset="0" />
      <stop
         id="SvgjsStop2892"
         stop-opacity="0"
         stop-color="#f0c7b1"
         offset="0.9" />
    </radialGradient>
    <radialGradient
       id="SvgjsRadialGradient5167"
       cx="-568.659"
       cy="-521.042"
       r="59.751"
       gradientTransform="matrix(0.096 -0.0248 0.0245 0.0961 141.2814 119.9893)"
       gradientUnits="userSpaceOnUse"
       class="svga-on-canvas-eyesiris-gradient-left-1">
      <stop
         id="SvgjsStop5168"
         stop-opacity="1"
         stop-color="#ffffff"
         offset="0" />
      <stop
         id="SvgjsStop5169"
         stop-opacity="0"
         stop-color="#ffffff"
         offset="1" />
    </radialGradient>
    <radialGradient
       id="SvgjsRadialGradient5171"
       cx="-582.838"
       cy="-519.099"
       r="59.745"
       gradientTransform="matrix(0.0991 8.856319e-004 -0.0011 0.0991 131.1134 135.9855)"
       gradientUnits="userSpaceOnUse"
       class="svga-on-canvas-eyesiris-gradient-left-2">
      <stop
         id="SvgjsStop5172"
         stop-opacity="1"
         stop-color="#ffffff"
         offset="0" />
      <stop
         id="SvgjsStop5173"
         stop-opacity="0"
         stop-color="#ffffff"
         offset="1" />
    </radialGradient>
    <linearGradient
       id="SvgjsLinearGradient5177"
       x1="122.67"
       y1="88.268"
       x2="123.606"
       y2="87.152"
       gradientTransform="matrix(1 0 0 1 -52 0)"
       gradientUnits="userSpaceOnUse"
       class="svga-on-canvas-eyesiris-gradient-left-5">
      <stop
         id="SvgjsStop5178"
         stop-opacity="1"
         stop-color="#ffffff"
         offset="0" />
      <stop
         id="SvgjsStop5179"
         stop-opacity="0"
         stop-color="#ffffff"
         offset="1" />
    </linearGradient>
    <linearGradient
       id="SvgjsLinearGradient5181"
       x1="127.212"
       y1="82.296"
       x2="126.463"
       y2="83.189"
       gradientTransform="matrix(1 0 0 1 -52 0)"
       gradientUnits="userSpaceOnUse"
       class="svga-on-canvas-eyesiris-gradient-left-6">
      <stop
         id="SvgjsStop5182"
         stop-opacity="1"
         stop-color="#ffffff"
         offset="0" />
      <stop
         id="SvgjsStop5183"
         stop-opacity="0"
         stop-color="#ffffff"
         offset="1" />
    </linearGradient>
    <linearGradient
       id="SvgjsLinearGradient5185"
       x1="129.636"
       y1="79.822"
       x2="127.91"
       y2="81.879"
       gradientTransform="matrix(1 0 0 1 -52 0)"
       gradientUnits="userSpaceOnUse"
       class="svga-on-canvas-eyesiris-gradient-left-7">
      <stop
         id="SvgjsStop5186"
         stop-opacity="1"
         stop-color="#ffffff"
         offset="0" />
      <stop
         id="SvgjsStop5187"
         stop-opacity="0"
         stop-color="#ffffff"
         offset="1" />
    </linearGradient>
    <radialGradient
       id="SvgjsRadialGradient5190"
       cx="-568.654"
       cy="-521.042"
       r="59.752"
       gradientTransform="matrix(0.096 -0.0248 0.0245 0.0961 193.2804 119.9894)"
       gradientUnits="userSpaceOnUse"
       class="svga-on-canvas-eyesiris-gradient-right-1">
      <stop
         id="SvgjsStop5191"
         stop-opacity="1"
         stop-color="#ffffff"
         offset="0" />
      <stop
         id="SvgjsStop5192"
         stop-opacity="0"
         stop-color="#ffffff"
         offset="1" />
    </radialGradient>
    <radialGradient
       id="SvgjsRadialGradient5194"
       cx="-582.833"
       cy="-519.102"
       r="59.747"
       gradientTransform="matrix(0.0991 8.856319e-004 -0.0011 0.0991 183.1126 135.9856)"
       gradientUnits="userSpaceOnUse"
       class="svga-on-canvas-eyesiris-gradient-right-2">
      <stop
         id="SvgjsStop5195"
         stop-opacity="1"
         stop-color="#ffffff"
         offset="0" />
      <stop
         id="SvgjsStop5196"
         stop-opacity="0"
         stop-color="#ffffff"
         offset="1" />
    </radialGradient>
    <linearGradient
       id="SvgjsLinearGradient5200"
       x1="122.67"
       y1="88.268"
       x2="123.606"
       y2="87.152"
       gradientUnits="userSpaceOnUse"
       class="svga-on-canvas-eyesiris-gradient-right-5">
      <stop
         id="SvgjsStop5201"
         stop-opacity="1"
         stop-color="#ffffff"
         offset="0" />
      <stop
         id="SvgjsStop5202"
         stop-opacity="0"
         stop-color="#ffffff"
         offset="1" />
    </linearGradient>
    <linearGradient
       id="SvgjsLinearGradient5204"
       x1="127.212"
       y1="82.296"
       x2="126.463"
       y2="83.189"
       gradientUnits="userSpaceOnUse"
       class="svga-on-canvas-eyesiris-gradient-right-6">
      <stop
         id="SvgjsStop5205"
         stop-opacity="1"
         stop-color="#ffffff"
         offset="0" />
      <stop
         id="SvgjsStop5206"
         stop-opacity="0"
         stop-color="#ffffff"
         offset="1" />
    </linearGradient>
    <linearGradient
       id="SvgjsLinearGradient5208"
       x1="129.636"
       y1="79.822"
       x2="127.91"
       y2="81.879"
       gradientUnits="userSpaceOnUse"
       class="svga-on-canvas-eyesiris-gradient-right-7">
      <stop
         id="SvgjsStop5209"
         stop-opacity="1"
         stop-color="#ffffff"
         offset="0" />
      <stop
         id="SvgjsStop5210"
         stop-opacity="0"
         stop-color="#ffffff"
         offset="1" />
    </linearGradient>
    <radialGradient
       id="SvgjsRadialGradient5473"
       cx="100"
       cy="100"
       r="150"
       gradientUnits="userSpaceOnUse"
       class="svga-on-canvas-backs-gradient-single-1">
      <stop
         id="SvgjsStop5474"
         stop-opacity="0"
         stop-color="#ecf0f1"
         offset="0" />
      <stop
         id="SvgjsStop5475"
         stop-opacity="1"
         stop-color="#c6dce2"
         offset="0.2" />
      <stop
         id="SvgjsStop5476"
         stop-opacity="0"
         stop-color="#c6dce2"
         offset="1" />
    </radialGradient>
    <linearGradient
       id="SvgjsLinearGradient6217"
       x1="100"
       y1="172"
       x2="100"
       y2="123"
       gradientUnits="userSpaceOnUse"
       class="svga-on-canvas-chinshadow-gradient-single-0">
      <stop
         id="SvgjsStop6218"
         stop-opacity="0.8"
         stop-color="#e1ac8f"
         offset="0" />
      <stop
         id="SvgjsStop6219"
         stop-opacity="1"
         stop-color="#c27b55"
         offset="0.7" />
    </linearGradient>
    <linearGradient
       id="SvgjsLinearGradient6221"
       x1="100"
       y1="141"
       x2="100"
       y2="137"
       gradientUnits="userSpaceOnUse"
       class="svga-on-canvas-mouth-gradient-single-0">
      <stop
         id="SvgjsStop6222"
         stop-opacity="1"
         stop-color="#e8b9a0"
         offset="0.1" />
      <stop
         id="SvgjsStop6223"
         stop-opacity="1"
         stop-color="#e1ac8f"
         offset="1" />
    </linearGradient>
    <radialGradient
       id="SvgjsRadialGradient6247"
       cx="125.903"
       cy="85.096"
       r="13.25"
       gradientTransform="matrix(-1.0996,0.0423,0.0635,0.9207,206.5488,0.5932)"
       gradientUnits="userSpaceOnUse"
       class="svga-on-canvas-eyesback-gradient-left-0">
      <stop
         id="SvgjsStop6248"
         stop-opacity="1"
         stop-color="#ffffff"
         offset="0" />
      <stop
         id="SvgjsStop6249"
         stop-opacity="1"
         stop-color="#fdfefe"
         offset="0.544" />
      <stop
         id="SvgjsStop6250"
         stop-opacity="1"
         stop-color="#f6f8f9"
         offset="0.74" />
      <stop
         id="SvgjsStop6251"
         stop-opacity="1"
         stop-color="#eaeff2"
         offset="0.879" />
      <stop
         id="SvgjsStop6252"
         stop-opacity="1"
         stop-color="#d9e3e8"
         offset="0.992" />
      <stop
         id="SvgjsStop6253"
         stop-opacity="1"
         stop-color="#d8e2e7"
         offset="1" />
    </radialGradient>
    <radialGradient
       id="SvgjsRadialGradient6255"
       cx="125.541"
       cy="85.113"
       r="13.249"
       gradientTransform="matrix(1.0996,0.0423,-0.0635,0.9207,-6.5488,0.5932)"
       gradientUnits="userSpaceOnUse"
       class="svga-on-canvas-eyesback-gradient-right-0">
      <stop
         id="SvgjsStop6256"
         stop-opacity="1"
         stop-color="#ffffff"
         offset="0" />
      <stop
         id="SvgjsStop6257"
         stop-opacity="1"
         stop-color="#fdfefe"
         offset="0.544" />
      <stop
         id="SvgjsStop6258"
         stop-opacity="1"
         stop-color="#f6f8f9"
         offset="0.74" />
      <stop
         id="SvgjsStop6259"
         stop-opacity="1"
         stop-color="#eaeff2"
         offset="0.879" />
      <stop
         id="SvgjsStop6260"
         stop-opacity="1"
         stop-color="#d9e3e8"
         offset="0.992" />
      <stop
         id="SvgjsStop6261"
         stop-opacity="1"
         stop-color="#d8e2e7"
         offset="1" />
    </radialGradient>
    <radialGradient
       id="SvgjsRadialGradient6263"
       cx="125.903"
       cy="85.096"
       r="13.25"
       gradientTransform="matrix(-1.0996 0.0423 0.0635 0.9207 206.5488 0.5932)"
       gradientUnits="userSpaceOnUse"
       class="svga-on-canvas-eyesfront-gradient-left-0">
      <stop
         id="SvgjsStop6264"
         stop-opacity="1"
         stop-color="#ffffff"
         offset="0" />
      <stop
         id="SvgjsStop6265"
         stop-opacity="1"
         stop-color="#fdfefe"
         offset="0.544" />
      <stop
         id="SvgjsStop6266"
         stop-opacity="1"
         stop-color="#f6f8f9"
         offset="0.74" />
      <stop
         id="SvgjsStop6267"
         stop-opacity="1"
         stop-color="#eaeff2"
         offset="0.879" />
      <stop
         id="SvgjsStop6268"
         stop-opacity="1"
         stop-color="#d9e3e8"
         offset="0.992" />
      <stop
         id="SvgjsStop6269"
         stop-opacity="1"
         stop-color="#d8e2e7"
         offset="1" />
    </radialGradient>
    <radialGradient
       id="SvgjsRadialGradient6273"
       cx="123.371"
       cy="81.442"
       fx="136.805"
       fy="80.36"
       r="17.038"
       gradientTransform="matrix(0.9884,0.1367,0.1336,-0.7354,-56.0677,125.3)"
       gradientUnits="userSpaceOnUse"
       class="svga-on-canvas-eyesfront-gradient-left-3">
      <stop
         id="SvgjsStop6274"
         stop-opacity="1"
         stop-color="#e1ac8f"
         offset="0" />
      <stop
         id="SvgjsStop6275"
         stop-opacity="0.3"
         stop-color="#e1ac8f"
         offset="0.7" />
      <stop
         id="SvgjsStop6276"
         stop-opacity="0"
         stop-color="#f0c7b1"
         offset="1" />
    </radialGradient>
    <radialGradient
       id="SvgjsRadialGradient6278"
       cx="78.965"
       cy="81.143"
       r="26.237"
       gradientTransform="matrix(0.7183,-0.06,0.0803,0.6143,8.7915,49.2595)"
       gradientUnits="userSpaceOnUse"
       class="svga-on-canvas-eyesfront-gradient-left-4">
      <stop
         id="SvgjsStop6279"
         stop-opacity="0"
         stop-color="#000000"
         offset="0.95" />
      <stop
         id="SvgjsStop6280"
         stop-opacity="0.2"
         stop-color="#000000"
         offset="1" />
    </radialGradient>
    <radialGradient
       id="SvgjsRadialGradient6284"
       cx="125.541"
       cy="85.113"
       r="13.249"
       gradientTransform="matrix(1.0996 0.0423 -0.0635 0.9207 -6.5488 0.5932)"
       gradientUnits="userSpaceOnUse"
       class="svga-on-canvas-eyesfront-gradient-right-0">
      <stop
         id="SvgjsStop6285"
         stop-opacity="1"
         stop-color="#ffffff"
         offset="0" />
      <stop
         id="SvgjsStop6286"
         stop-opacity="1"
         stop-color="#fdfefe"
         offset="0.544" />
      <stop
         id="SvgjsStop6287"
         stop-opacity="1"
         stop-color="#f6f8f9"
         offset="0.74" />
      <stop
         id="SvgjsStop6288"
         stop-opacity="1"
         stop-color="#eaeff2"
         offset="0.879" />
      <stop
         id="SvgjsStop6289"
         stop-opacity="1"
         stop-color="#d9e3e8"
         offset="0.992" />
      <stop
         id="SvgjsStop6290"
         stop-opacity="1"
         stop-color="#d8e2e7"
         offset="1" />
    </radialGradient>
    <radialGradient
       id="SvgjsRadialGradient6294"
       cx="122.972"
       cy="81.425"
       fx="136.406"
       fy="80.344"
       r="17.037"
       gradientTransform="matrix(-0.9884,0.1367,-0.1336,-0.7354,255.271,125.3424)"
       gradientUnits="userSpaceOnUse"
       class="svga-on-canvas-eyesfront-gradient-right-3">
      <stop
         id="SvgjsStop6295"
         stop-opacity="1"
         stop-color="#e1ac8f"
         offset="0" />
      <stop
         id="SvgjsStop6296"
         stop-opacity="0.3"
         stop-color="#e1ac8f"
         offset="0.7" />
      <stop
         id="SvgjsStop6297"
         stop-opacity="0"
         stop-color="#f0c7b1"
         offset="1" />
    </radialGradient>
    <radialGradient
       id="SvgjsRadialGradient6299"
       cx="79.515"
       cy="81.186"
       r="26.237"
       gradientTransform="matrix(-0.7183,-0.06,-0.0803,0.6143,191.2076,49.2665)"
       gradientUnits="userSpaceOnUse"
       class="svga-on-canvas-eyesfront-gradient-right-4">
      <stop
         id="SvgjsStop6300"
         stop-opacity="0"
         stop-color="#000000"
         offset="0.95" />
      <stop
         id="SvgjsStop6301"
         stop-opacity="0.2"
         stop-color="#000000"
         offset="1" />
    </radialGradient>
  </defs>
</svg>
